<?xml version="1.0" encoding="UTF-8" standalone="no"?>
<svg
   xmlns:dc="http://purl.org/dc/elements/1.1/"
   xmlns:cc="http://creativecommons.org/ns#"
   xmlns:rdf="http://www.w3.org/1999/02/22-rdf-syntax-ns#"
   xmlns:svg="http://www.w3.org/2000/svg"
   xmlns="http://www.w3.org/2000/svg"
   xmlns:sodipodi="http://sodipodi.sourceforge.net/DTD/sodipodi-0.dtd"
   xmlns:inkscape="http://www.inkscape.org/namespaces/inkscape"
   viewBox="0 0 569.59662 493.59558"
   height="493.59558"
   width="569.59662"
   version="1.1"
   id="svg3350"
   inkscape:version="0.91 r13725"
   sodipodi:docname="earth_symbol.svg">
  <sodipodi:namedview
     pagecolor="#ffffff"
     bordercolor="#666666"
     borderopacity="1"
     objecttolerance="10"
     gridtolerance="10"
     guidetolerance="10"
     inkscape:pageopacity="0"
     inkscape:pageshadow="2"
     inkscape:window-width="640"
     inkscape:window-height="480"
     id="namedview3406"
     showgrid="false"
     fit-margin-top="0"
     fit-margin-left="0"
     fit-margin-right="0"
     fit-margin-bottom="0"
     inkscape:zoom="0.46388206"
     inkscape:cx="283.27031"
     inkscape:cy="245.62128"
     inkscape:window-x="0"
     inkscape:window-y="0"
     inkscape:window-maximized="0"
     inkscape:current-layer="svg3350" />
  <metadata
     id="metadata3356">
    <rdf:RDF>
      <cc:Work
         rdf:about="">
        <dc:format>image/svg+xml</dc:format>
        <dc:type
           rdf:resource="http://purl.org/dc/dcmitype/StillImage" />
        <dc:title></dc:title>
      </cc:Work>
    </rdf:RDF>
  </metadata>
  <defs
     id="defs3354" />
  <path
     id="path3360"
     d="M 142.27808,247.92445 C 64.247709,112.80533 0.22275922,1.746327 4.1922426e-4,1.126662 -0.24776078,0.435004 109.71256,0 284.79828,0 464.63922,0 569.85106,0.426133 569.59615,1.153501 568.66388,3.8136301 285.42159,493.59558 284.8155,493.59558 c -0.3652,0 -64.50704,-110.55201 -142.53742,-245.67113 z m 201.68038,104.40421 c 32.16297,-55.6851 58.47812,-101.52764 58.47812,-101.87231 0,-0.34466 -52.98271,-0.62665 -117.73936,-0.62665 -72.54574,0 -117.58419,0.43541 -117.3351,1.13434 0.96504,2.70792 116.84245,202.61027 117.44711,202.61027 0.36911,0 26.98625,-45.56054 59.14923,-101.24565 z M 475.2456,125.16883 536.53335,18.797865 410.66581,18.489061 c -69.22714,-0.169843 -182.50081,-0.169843 -251.71927,0 l -125.851731,0.308804 61.271955,106.362075 61.271946,106.36207 129.15957,0.008 129.15958,0.008 61.28774,-106.37096 z"
     style="fill:#000000"
     inkscape:connector-curvature="0" />
</svg>
